<?xml version="1.0" standalone="no"?>
<!DOCTYPE svg PUBLIC "-//W3C//DTD SVG 20010904//EN"
 "http://www.w3.org/TR/2001/REC-SVG-20010904/DTD/svg10.dtd">
<svg version="1.0" xmlns="http://www.w3.org/2000/svg"
 width="400.000000pt" height="400.000000pt" viewBox="0 0 400.000000 400.000000"
 preserveAspectRatio="xMidYMid meet">
<metadata>
Created by potrace 1.14, written by Peter Selinger 2001-2017
</metadata>
<g transform="translate(0.000000,400.000000) scale(0.100000,-0.100000)"
fill="#000000" stroke="none">
<path d="M1440 2891 c-124 -126 -229 -226 -234 -223 -5 3 -6 1 -3 -5 4 -5 -5
-20 -19 -32 -28 -25 -24 -42 8 -33 19 5 528 503 528 517 0 3 -12 5 -27 4 -23
0 -71 -44 -253 -228z"/>
<path d="M2309 3083 c-1 -21 -2 -56 -2 -78 -1 -22 -6 -43 -12 -47 -6 -5 -6 -8
2 -8 12 0 12 -17 0 -37 -4 -6 -3 -23 3 -38 8 -21 8 -26 -2 -22 -10 3 -13 -17
-12 -87 0 -50 -3 -97 -9 -103 -6 -9 -6 -13 2 -13 7 0 9 -5 4 -12 -4 -7 -6 -21
-5 -31 2 -10 -2 -26 -10 -35 -7 -8 -8 -13 -2 -9 7 4 10 -10 10 -39 -1 -24 -5
-44 -11 -44 -5 0 -3 -5 5 -10 12 -8 12 -10 1 -10 -11 0 -11 -3 -1 -15 7 -8 8
-15 3 -15 -6 0 -9 -19 -8 -42 2 -24 1 -47 -2 -51 -8 -13 -9 -107 -2 -107 4 0
5 -9 2 -20 -3 -12 -2 -20 3 -19 13 3 64 -23 64 -33 0 -4 5 -8 12 -8 6 0 21 -9
32 -19 12 -11 28 -21 36 -23 8 -2 18 -7 21 -11 10 -14 43 -14 57 0 8 7 18 11
23 8 5 -4 9 -1 9 5 0 6 4 9 9 6 5 -3 26 2 47 11 41 17 62 22 107 25 15 1 27 5
27 8 0 10 42 6 59 -4 9 -6 12 -5 8 1 -4 6 9 10 33 10 26 0 37 -4 33 -11 -4 -6
1 -5 10 3 9 7 17 9 17 4 0 -5 17 -10 37 -11 20 -1 39 -5 42 -9 6 -8 27 -15 49
-16 6 0 12 -4 12 -9 0 -4 6 -8 14 -8 7 0 25 -12 40 -26 14 -15 26 -23 26 -19
0 4 10 -5 22 -21 13 -16 28 -35 35 -42 6 -7 10 -21 8 -32 -5 -24 17 -27 38 -5
8 8 17 11 21 8 3 -4 6 -1 6 5 0 6 43 54 95 106 52 52 95 100 95 107 0 6 -13
25 -30 40 -16 16 -27 29 -23 29 6 0 -2 7 -56 53 -12 9 -26 17 -31 17 -6 0 -10
5 -10 10 0 6 -6 10 -14 10 -8 0 -16 4 -18 10 -3 10 -159 67 -198 72 -14 2 -29
6 -35 9 -5 3 -31 5 -57 5 -27 -1 -48 2 -48 5 0 7 -67 2 -80 -6 -6 -3 -10 0
-10 7 0 8 -3 9 -8 2 -4 -5 -16 -10 -27 -10 -11 0 -40 -4 -65 -9 -25 -5 -48 -9
-52 -9 -3 -1 -10 -4 -14 -8 -4 -5 -16 -8 -26 -8 -10 0 -18 -5 -18 -11 0 -8 -4
-8 -13 -1 -7 6 -12 26 -11 44 2 18 4 60 5 93 2 33 7 65 11 72 5 6 5 14 -2 18
-6 3 -7 12 -3 18 4 7 8 45 10 86 1 41 4 80 7 86 3 9 109 12 409 11 376 -1 406
0 416 17 8 12 8 17 0 17 -8 0 -8 5 1 15 8 10 9 15 1 15 -7 0 -8 8 0 27 7 19 6
28 -2 34 -7 4 -8 12 -3 20 11 19 13 49 2 49 -5 0 -4 10 3 21 8 17 8 23 -2 30
-10 6 -10 11 -1 22 7 7 9 17 5 20 -3 4 -255 7 -560 7 l-553 0 -1 -37z"/>
<path d="M1324 2991 c-10 -2 -30 -16 -43 -32 -13 -16 -27 -26 -32 -23 -5 3 -9
1 -9 -5 0 -15 -46 -62 -53 -54 -4 3 -7 1 -7 -6 0 -6 -139 -151 -310 -321 -170
-170 -310 -313 -310 -317 0 -5 4 -2 9 6 6 10 13 11 29 2 14 -7 23 -8 27 -1 4
6 11 8 16 4 5 -3 22 2 37 12 32 21 56 44 46 44 -4 0 4 8 17 19 41 32 139 134
139 144 0 6 3 7 6 4 4 -4 19 9 35 29 15 19 30 35 33 35 10 -1 54 48 48 53 -3
3 -1 6 4 6 14 0 93 78 86 84 -3 3 1 6 9 6 8 0 25 14 39 32 45 56 52 65 44 48
-5 -8 15 10 44 40 29 30 52 59 52 64 0 5 3 6 6 3 4 -4 20 10 35 30 16 20 29
33 29 30 0 -10 55 48 56 58 1 10 -43 14 -82 6z"/>
<path d="M1640 2813 c-36 -36 -64 -70 -62 -75 1 -5 -2 -7 -7 -4 -5 3 -12 -1
-15 -10 -3 -8 -10 -12 -16 -9 -5 3 -10 1 -10 -5 0 -6 -16 -26 -35 -44 -19 -19
-35 -37 -35 -42 0 -5 20 -9 45 -9 25 1 45 -3 45 -8 0 -5 7 -7 15 -4 8 4 17 2
20 -3 4 -6 15 -10 26 -10 10 0 19 -4 19 -10 0 -5 4 -10 10 -10 18 0 60 -44 90
-92 18 -29 25 -48 17 -48 -8 0 -8 -3 2 -9 18 -12 26 -151 8 -151 -8 0 -7 -3 2
-9 9 -6 10 -11 2 -15 -6 -4 -9 -12 -6 -17 4 -5 1 -9 -5 -9 -6 0 -8 -5 -5 -10
3 -6 -3 -23 -14 -39 -12 -16 -21 -34 -21 -41 0 -6 -6 -17 -12 -25 -7 -7 -26
-30 -43 -51 -34 -44 -100 -109 -175 -174 -29 -25 -65 -57 -80 -72 -16 -14 -31
-23 -34 -20 -3 3 -6 -3 -6 -13 0 -10 -3 -16 -6 -12 -6 5 -20 -5 -74 -53 -16
-14 -43 -36 -60 -50 -18 -14 -43 -35 -57 -47 -13 -11 -42 -35 -63 -53 -43 -35
-86 -72 -111 -95 -9 -8 -21 -15 -27 -15 -7 0 -12 -4 -12 -9 0 -5 -18 -22 -40
-39 -22 -16 -37 -31 -34 -35 3 -3 -4 -8 -17 -12 -25 -8 -84 -69 -84 -88 -1 -6
4 -15 10 -19 6 -5 4 -8 -5 -8 -12 0 -12 -2 -2 -8 9 -7 10 -15 3 -35 -6 -15 -7
-27 -2 -27 10 0 9 -19 -2 -37 -4 -6 -3 -14 2 -17 10 -6 9 -25 -1 -41 -3 -6 -1
-17 5 -26 13 -16 111 -21 134 -6 6 4 14 4 17 -1 6 -10 326 -10 342 0 6 4 14 4
18 0 12 -12 790 -10 798 2 5 7 8 7 8 -1 0 -7 7 -10 15 -7 8 4 12 11 9 16 -4 6
-6 38 -5 72 1 33 2 67 1 74 0 6 0 19 0 27 0 90 -3 103 -18 97 -11 -4 -13 -1
-7 8 6 10 4 11 -6 4 -20 -12 -439 -13 -432 0 4 5 1 6 -8 0 -8 -5 -102 -9 -209
-9 l-196 0 25 22 c13 13 28 23 33 23 5 0 6 5 3 10 -6 9 8 14 28 11 4 0 7 7 7
16 0 9 3 14 6 10 3 -3 19 8 35 24 16 16 29 28 29 26 0 -3 19 13 42 34 24 22
46 39 49 39 3 0 22 15 41 33 45 41 71 62 80 65 5 1 21 16 38 34 16 17 30 28
30 25 0 -6 46 35 149 135 38 36 73 63 76 60 4 -4 5 -2 3 4 -2 6 16 32 38 57
23 25 39 48 36 51 -2 3 3 8 12 12 9 3 14 10 11 14 -3 4 2 13 10 20 8 7 12 16
9 21 -3 5 0 9 5 9 6 0 11 9 11 20 0 11 4 20 8 20 4 0 9 12 10 26 1 15 6 32 12
39 5 6 11 26 12 44 1 18 6 35 10 37 5 3 4 14 -2 24 -6 10 -6 21 -1 24 10 6 7
88 -4 106 -5 9 -4 11 3 6 9 -5 9 0 2 19 -6 15 -8 31 -4 36 3 5 1 9 -5 9 -6 0
-8 6 -5 14 3 8 1 17 -5 21 -6 3 -11 17 -11 31 0 13 -4 24 -10 24 -5 0 -10 6
-10 14 0 21 -40 86 -72 118 -15 14 -24 29 -21 32 4 3 -1 6 -10 6 -9 0 -17 8
-17 17 0 9 -3 14 -6 10 -3 -3 -17 5 -31 19 -13 13 -28 22 -32 20 -4 -3 -17 4
-29 14 -12 11 -31 20 -42 20 -12 0 -18 5 -15 10 3 6 -2 10 -12 10 -10 0 -27 2
-38 5 -15 3 -38 -13 -85 -62z"/>
<path d="M2532 1932 c-14 -14 -18 -31 -16 -70 2 -29 -1 -50 -6 -47 -4 3 -11
-2 -14 -11 -3 -9 -11 -12 -18 -8 -8 5 -9 2 -5 -10 4 -10 7 -21 7 -26 0 -5 12
-7 26 -5 26 2 47 25 51 55 1 8 4 24 6 35 2 11 0 22 -4 25 -5 3 1 11 11 18 13
8 20 9 20 1 0 -5 4 -8 8 -5 5 3 9 -8 10 -25 0 -20 -3 -27 -11 -22 -7 4 -6 0 2
-10 11 -14 11 -17 0 -17 -12 0 -12 -2 0 -9 7 -5 11 -13 7 -19 -7 -12 13 -29
34 -28 10 1 15 12 15 34 0 17 4 32 9 32 6 0 6 4 0 10 -7 7 -8 29 -4 56 7 42 5
45 -19 51 -38 10 -45 10 -58 0 -9 -6 -13 -6 -13 2 0 17 -18 13 -38 -7z"/>
<path d="M2692 1936 c-7 -9 -9 -132 -3 -168 0 -4 13 -5 27 -2 19 3 24 1 18 -8
-6 -10 -4 -10 7 -2 16 12 29 12 48 0 10 -6 12 -5 7 3 -5 8 0 10 18 7 23 -4 24
-2 16 19 -5 12 -6 25 -3 28 3 4 -11 1 -32 -4 -24 -7 -41 -7 -47 -1 -13 13 8
26 46 26 20 1 31 6 31 16 1 21 -13 29 -46 23 -21 -3 -29 0 -29 10 0 17 24 29
36 18 5 -4 23 -4 39 0 17 3 24 7 18 8 -7 0 -13 9 -13 19 0 14 -10 17 -65 18
-37 1 -69 -4 -73 -10z"/>
<path d="M2906 1943 c-4 -5 -16 -9 -27 -9 -38 -3 -39 -4 -28 -23 7 -10 20 -16
29 -14 14 4 17 -4 18 -54 1 -85 1 -86 16 -80 8 3 17 1 20 -6 3 -9 5 -8 5 1 1
7 5 11 10 8 12 -8 8 47 -4 56 -6 5 -6 8 1 8 7 0 10 13 8 30 -2 19 1 30 9 31 6
1 19 2 27 3 8 0 17 12 18 25 3 18 0 22 -12 18 -8 -3 -18 -2 -21 3 -4 6 -11 10
-16 10 -6 0 -8 -4 -5 -9 7 -11 -27 -9 -35 2 -3 4 -9 4 -13 0z"/>
<path d="M3458 1819 c-16 -4 -28 -6 -28 -3 0 2 -16 -12 -35 -32 -19 -19 -35
-39 -35 -45 0 -6 -3 -8 -7 -6 -5 2 -16 -4 -25 -15 -10 -10 -16 -18 -13 -18 3
0 0 -6 -7 -14 -7 -8 -15 -13 -18 -12 -6 3 -55 -47 -53 -54 0 -3 -2 -5 -5 -4
-7 0 -65 -58 -69 -69 -2 -4 -5 -7 -8 -7 -8 -1 -75 -73 -75 -82 0 -4 -5 -8 -11
-8 -6 0 -17 -7 -25 -15 -9 -8 -13 -15 -10 -15 3 0 -23 -27 -58 -59 -35 -33
-61 -62 -58 -65 3 -3 27 -6 54 -6 47 0 50 2 123 77 41 42 75 80 75 85 0 5 3 8
8 6 4 -2 19 9 34 24 15 15 24 28 21 28 -2 0 21 25 52 55 32 30 62 55 68 55 6
0 8 3 4 6 -8 8 18 34 33 34 6 0 9 4 5 10 -3 5 7 16 22 24 15 8 24 15 20 16 -4
0 15 23 43 50 27 28 50 53 50 55 0 2 -8 2 -17 1 -10 -2 -20 0 -23 4 -3 4 -17
3 -32 -1z"/>
<path d="M2307 1723 c-12 -14 -34 -39 -49 -55 -15 -15 -25 -28 -22 -28 3 0 -6
-11 -20 -24 -15 -13 -26 -28 -26 -34 0 -5 -7 -13 -16 -16 -8 -3 -12 -10 -9
-16 3 -5 -1 -10 -9 -10 -8 0 -18 -5 -22 -12 -5 -7 -3 -8 7 -3 12 7 12 6 1 -7
-11 -14 -10 -17 7 -23 12 -3 21 -11 21 -16 0 -5 7 -9 16 -9 8 0 13 -4 10 -9
-4 -5 7 -15 23 -22 16 -7 27 -17 25 -21 -3 -4 2 -8 10 -8 9 0 16 -4 16 -10 0
-5 5 -10 11 -10 6 0 25 -10 42 -22 18 -13 34 -23 37 -24 17 -3 59 -25 65 -34
3 -5 11 -8 16 -4 5 3 16 1 23 -6 25 -20 55 -20 61 1 4 11 9 18 13 16 4 -2 21
11 39 30 17 18 28 33 25 33 -4 0 8 10 25 21 18 12 31 24 30 27 -2 4 4 15 15
25 10 9 18 15 18 12 0 -3 6 0 14 7 8 7 12 16 10 20 -2 4 5 9 16 13 12 4 20 15
19 28 0 12 -3 17 -5 11 -4 -9 -18 -8 -52 3 -26 8 -51 15 -57 17 -5 1 -16 5
-22 9 -7 5 -23 10 -35 12 -13 3 -24 9 -26 15 -2 5 -9 10 -16 10 -7 0 -32 14
-54 30 -23 17 -42 28 -42 25 0 -5 -11 4 -75 63 -30 28 -30 28 -58 -5z"/>
<path d="M2842 1458 c2 -7 -4 -12 -12 -10 -8 2 -12 0 -8 -4 9 -8 -167 -184
-184 -184 -6 0 -9 -3 -6 -6 4 -3 -16 -28 -43 -55 -27 -27 -49 -54 -49 -61 0
-6 -3 -8 -7 -5 -3 4 -17 -6 -30 -21 -28 -32 -20 -24 -126 -128 -47 -46 -83
-84 -79 -84 4 0 1 -4 -7 -9 -9 -6 -4 -8 17 -7 17 2 41 15 56 29 15 15 31 27
37 27 6 0 8 3 6 8 -5 9 171 181 178 174 3 -3 5 0 5 6 0 14 58 72 72 72 6 0 9
2 6 6 -7 6 120 134 133 134 5 0 8 4 7 9 -2 4 22 32 52 61 47 45 51 52 30 49
-14 -2 -31 0 -38 5 -8 5 -12 3 -10 -6z"/>
</g>
</svg>
